<mxfile host="app.diagrams.net" modified="2022-12-05T05:46:25.435Z" agent="5.0 (Windows NT 10.0; Win64; x64) AppleWebKit/537.36 (KHTML, like Gecko) Chrome/107.0.0.0 Safari/537.36" version="20.6.0" etag="4WaGANX-876yypPKUG9d" type="github">
  <diagram id="Nkeg9CZlpKfOZv1np2-i" name="Страница 1">
    <mxGraphModel dx="1233" dy="801" grid="1" gridSize="10" guides="1" tooltips="1" connect="1" arrows="1" fold="1" page="1" pageScale="1" pageWidth="827" pageHeight="1169" math="0" shadow="0">
      <root>
        <mxCell id="0" />
        <mxCell id="1" parent="0" />
        <mxCell id="IMVqpX4EKPAHTBsNYRfy-1" value="Есть два ENUM&amp;nbsp;&lt;br&gt;-&amp;nbsp;ResolutionKindList&lt;br&gt;-&amp;nbsp;ResolutionTypeList&lt;br&gt;&lt;br&gt;Евгений говорит что между ними связь &quot;&lt;b&gt;1:*&lt;/b&gt;&quot;, что говорит что это разные вещи... в коде часто втречаю либо путаницу&amp;nbsp;&lt;br&gt;kind = ResolutionTypeList. ...&lt;br&gt;либо это один справочник который имеет одни и те же значения что для Kind, что для Type" style="rounded=1;whiteSpace=wrap;html=1;align=left;spacingLeft=4;" vertex="1" parent="1">
          <mxGeometry x="350" y="380" width="310" height="170" as="geometry" />
        </mxCell>
        <mxCell id="IMVqpX4EKPAHTBsNYRfy-4" style="rounded=0;orthogonalLoop=1;jettySize=auto;html=1;" edge="1" parent="1" source="IMVqpX4EKPAHTBsNYRfy-3">
          <mxGeometry relative="1" as="geometry">
            <mxPoint x="350" y="380" as="targetPoint" />
          </mxGeometry>
        </mxCell>
        <mxCell id="IMVqpX4EKPAHTBsNYRfy-3" value="Возможно это реализовано отношением Parent - Chlidren" style="rounded=1;whiteSpace=wrap;html=1;" vertex="1" parent="1">
          <mxGeometry x="170" y="230" width="120" height="60" as="geometry" />
        </mxCell>
      </root>
    </mxGraphModel>
  </diagram>
</mxfile>
